<svg width="35" height="35" viewBox="0 0 35 35" fill="none" xmlns="http://www.w3.org/2000/svg">
<circle cx="17.5" cy="17.5" r="17.5" fill="#EBEBEB"/>
<path d="M17.8834 9.00673L18 9C18.5128 9 18.9355 9.38604 18.9933 9.88338L19 10V17H26C26.5128 17 26.9355 17.386 26.9933 17.8834L27 18C27 18.5128 26.614 18.9355 26.1166 18.9933L26 19H19V26C19 26.5128 18.614 26.9355 18.1166 26.9933L18 27C17.4872 27 17.0645 26.614 17.0067 26.1166L17 26V19H10C9.48716 19 9.06449 18.614 9.00673 18.1166L9 18C9 17.4872 9.38604 17.0645 9.88338 17.0067L10 17H17V10C17 9.48716 17.386 9.06449 17.8834 9.00673L18 9L17.8834 9.00673Z" fill="#737373"/>
</svg>
