<svg width="35" height="35" viewBox="0 0 35 35" fill="none" xmlns="http://www.w3.org/2000/svg">
<circle cx="17.5" cy="17.5" r="17.5" fill="#EBEBEB"/>
<path d="M16 11H20C20 9.89543 19.1046 9 18 9C16.8954 9 16 9.89543 16 11ZM14.5 11C14.5 9.067 16.067 7.5 18 7.5C19.933 7.5 21.5 9.067 21.5 11H27.25C27.6642 11 28 11.3358 28 11.75C28 12.1642 27.6642 12.5 27.25 12.5H25.9309L24.7589 24.6112C24.5729 26.5334 22.9575 28 21.0263 28H14.9737C13.0425 28 11.4271 26.5334 11.2411 24.6112L10.0691 12.5H8.75C8.33579 12.5 8 12.1642 8 11.75C8 11.3358 8.33579 11 8.75 11H14.5ZM16.5 15.75C16.5 15.3358 16.1642 15 15.75 15C15.3358 15 15 15.3358 15 15.75V23.25C15 23.6642 15.3358 24 15.75 24C16.1642 24 16.5 23.6642 16.5 23.25V15.75ZM20.25 15C19.8358 15 19.5 15.3358 19.5 15.75V23.25C19.5 23.6642 19.8358 24 20.25 24C20.6642 24 21 23.6642 21 23.25V15.75C21 15.3358 20.6642 15 20.25 15Z" fill="#737373"/>
</svg>
