<svg width="35" height="35" viewBox="0 0 35 35" fill="none" xmlns="http://www.w3.org/2000/svg">
<circle cx="17.5" cy="17.5" r="17.5" fill="#EBEBEB"/>
<path d="M14 18C14 19.1046 13.1046 20 12 20C10.8954 20 10 19.1046 10 18C10 16.8954 10.8954 16 12 16C13.1046 16 14 16.8954 14 18ZM20 18C20 19.1046 19.1046 20 18 20C16.8954 20 16 19.1046 16 18C16 16.8954 16.8954 16 18 16C19.1046 16 20 16.8954 20 18ZM24 20C25.1046 20 26 19.1046 26 18C26 16.8954 25.1046 16 24 16C22.8954 16 22 16.8954 22 18C22 19.1046 22.8954 20 24 20Z" fill="#737373"/>
</svg>
